<svg xmlns="http://www.w3.org/2000/svg" viewBox="0 0 100 100">
  <defs>
    <linearGradient id="g" x1="0%" y1="0%" x2="100%" y2="100%">
      <stop offset="0%" style="stop-color:#6366f1"/>
      <stop offset="100%" style="stop-color:#8b5cf6"/>
    </linearGradient>
  </defs>
  <rect width="100" height="100" rx="22" fill="url(#g)"/>
  <!-- Sound wave + F -->
  <path d="M38 28v44M38 28l-8 8M38 28l8-8M38 72l-8-8M38 72l8 8" stroke="white" stroke-width="4" stroke-linecap="round" fill="none" opacity="0.6"/>
  <path d="M48 25v50M48 25l7-3M48 25l-7-3M48 75l7 3M48 75l-7 3" stroke="white" stroke-width="3.5" stroke-linecap="round" fill="none" opacity="0.8"/>
  <path d="M58 22v56M58 22l6-2M58 22l-6-2M58 78l6 2M58 78l-6 2" stroke="white" stroke-width="3" stroke-linecap="round" fill="none"/>
  <!-- F lettermark -->
  <text x="50" y="68" font-family="system-ui,sans-serif" font-weight="900" font-size="28" fill="white" text-anchor="middle" opacity="0.95">FV</text>
</svg>
